<svg xmlns="http://www.w3.org/2000/svg" viewBox="0 0 39.69 39.59"><title>Btn_Edit</title><path d="M519,1176.61l-8.38-8.26a1.44,1.44,0,0,0-2.05,0h0l-6,6h0l-18.41,18.41a1.35,1.35,0,0,0-.31.53h0l-4,12.34a1.47,1.47,0,0,0,.37,1.48,1.44,1.44,0,0,0,1,.41,1,1,0,0,0,.43,0l12.38-4h0a1.52,1.52,0,0,0,.55-.35L519,1178.79a1.47,1.47,0,0,0,.11-2.09Zm-25.42,23.46-6.32-6.32,16.38-16.35,6.32,6.32Zm-7.71-3.63,5,5-7.36,2.35ZM512,1181.66l-6.29-6.32,3.94-3.92,6.32,6.32Z" transform="translate(-479.81 -1167.92)" style="fill:#242843"/></svg>