<svg xmlns="http://www.w3.org/2000/svg" viewBox="0 0 34 41.03"><title>Btn_Share</title><path d="M516.7,1173.69a6.37,6.37,0,0,0-1.09-3.66,8.74,8.74,0,0,0-.91-1,6.08,6.08,0,0,0-4.53-1.87,6.39,6.39,0,0,0-6.53,6.55,6.39,6.39,0,0,0,.34,2.08.56.56,0,0,0-.17.09l-10.1,6.72a1.37,1.37,0,0,0-.23.19,6.05,6.05,0,0,0-4.25-1.66,6.45,6.45,0,0,0-6.53,6.53,6.26,6.26,0,0,0,1.87,4.57,6.32,6.32,0,0,0,4.66,2,5.92,5.92,0,0,0,4.21-1.66,2,2,0,0,0,.27.22l10.08,6.7.15.1a7.25,7.25,0,0,0-.3,2.07,6.22,6.22,0,0,0,1.87,4.53,6.41,6.41,0,0,0,4.66,2,5.91,5.91,0,0,0,4.53-2,6.74,6.74,0,0,0,.91-.94,6.15,6.15,0,0,0,1.09-3.59,6.28,6.28,0,0,0-1.09-3.64,5.75,5.75,0,0,0-.91-1,6.06,6.06,0,0,0-4.53-1.89,6.52,6.52,0,0,0-4.32,1.59.44.44,0,0,0-.15-.12l-10.08-6.7a1.15,1.15,0,0,0-.19-.17,7.26,7.26,0,0,0,0-4.13l.19-.09,10.13-6.72.19-.15a6.35,6.35,0,0,0,4.23,1.58,5.89,5.89,0,0,0,4.53-2,6.59,6.59,0,0,0,.91-.92A6.13,6.13,0,0,0,516.7,1173.69Z" transform="translate(-482.7 -1167.14)" style="fill:#242843"/></svg>