<svg xmlns="http://www.w3.org/2000/svg" viewBox="0 0 32.67 43.41"><title>Btn_Delete</title><path d="M499.74,1165.9a6.46,6.46,0,0,0-4.1,1.49,10.7,10.7,0,0,1-2.44,1.73,1.49,1.49,0,0,0-.93.92h-8.91v3.1H516V1170h-8.91a1.54,1.54,0,0,0-.93-.92,10.17,10.17,0,0,1-2.47-1.73A6.32,6.32,0,0,0,499.74,1165.9Zm0,3.1a3.86,3.86,0,0,1,2.4,1h-4.92a4.27,4.27,0,0,1,2.52-1Zm-14.9,5.17v28.95a6.42,6.42,0,0,0,1.55,4.57,5.89,5.89,0,0,0,4.41,1.61h17.82a5.88,5.88,0,0,0,4.38-1.61,6.46,6.46,0,0,0,1.54-4.57v-28.95Zm3,3.1h23.76v25.85a3.32,3.32,0,0,1-.68,2.39,3,3,0,0,1-2.28.69H490.8a3,3,0,0,1-2.3-.71,3.22,3.22,0,0,1-.68-2.37Zm3.47,5.17V1201h3v-18.6Zm6.93,0V1201h3v-18.6Zm6.93,0V1201h3v-18.6Z" transform="translate(-483.36 -1165.9)" style="fill:#242843"/></svg>