<svg xmlns="http://www.w3.org/2000/svg" viewBox="0 0 23.69 12.37"><title>MetaStats_Views</title><path d="M510,1207.39a14.27,14.27,0,0,0-11.7,5.74.77.77,0,0,0,0,.89,14.79,14.79,0,0,0,23.4,0,.77.77,0,0,0,0-.89A14.27,14.27,0,0,0,510,1207.39Zm0,1.55a12.87,12.87,0,0,1,10.09,4.63,13.29,13.29,0,0,1-20.18,0A12.87,12.87,0,0,1,510,1208.94Zm0,.51a4.13,4.13,0,1,0,4.12,4.12h0A4.14,4.14,0,0,0,510,1209.45Zm0,1.55a2.58,2.58,0,1,1-2.58,2.57h0A2.57,2.57,0,0,1,510,1211Z" transform="translate(-498.16 -1207.39)" style="fill:#fe5f55"/></svg>