<svg xmlns="http://www.w3.org/2000/svg" viewBox="0 0 112.44 25.04"><title>logo</title><path d="M26.62,29.71a1,1,0,0,1-1-1V14.5a1,1,0,0,1,2,0h0V28.74a1,1,0,0,1-1,1Z" transform="translate(-5.99 -4.71)" style="fill:#242843"/><path d="M38.24,29.71a1,1,0,0,1-.93-.6L31.37,14.86a.91.91,0,0,1,.46-1.19h.1a1,1,0,0,1,1.26.51h0l5,12,5-12a1,1,0,0,1,1.24-.55h0A1,1,0,0,1,45,14.85h0L39,29.1A.94.94,0,0,1,38.24,29.71Z" transform="translate(-5.99 -4.71)" style="fill:#242843"/><path d="M55.43,29.71A7.8,7.8,0,0,1,47.5,22v-.4A8.32,8.32,0,0,1,49.62,16a7.54,7.54,0,0,1,5.65-2.39c4.45,0,7.65,3.38,7.65,8.07a1,1,0,0,1-1,1H49.52a5.91,5.91,0,0,0,5.9,5.2,5.66,5.66,0,0,0,5-2.69,1,1,0,0,1,1.37-.3,1,1,0,0,1,.37,1.28h0A7.75,7.75,0,0,1,55.43,29.71Zm-5.9-9H60.92a5.54,5.54,0,0,0-5.6-5.23,5.72,5.72,0,0,0-5.75,5.23Z" transform="translate(-5.99 -4.71)" style="fill:#242843"/><path d="M74.26,14.5a1,1,0,0,1-1,.95h0a4.82,4.82,0,0,0-4.82,4.8v8.5a1,1,0,0,1-2,0V14.5a1,1,0,0,1,1.92,0v1a6.75,6.75,0,0,1,4.81-1.91,1,1,0,0,1,1,.92Z" transform="translate(-5.99 -4.71)" style="fill:#242843"/><path d="M81.92,29.71a5.31,5.31,0,0,1-5-2.75,1,1,0,0,1,1.8-.8A3.37,3.37,0,0,0,82,27.8c2.27,0,3.49-1.4,3.49-2.75,0-1.76-1.12-2.21-3.7-2.84-2.18-.54-4.91-1.2-4.91-4.27a4.22,4.22,0,0,1,1.33-3A5.36,5.36,0,0,1,82,13.56a5,5,0,0,1,4.7,2.54.91.91,0,0,1-.38,1.22h-.09a1,1,0,0,1-1.33-.45A3.07,3.07,0,0,0,82,15.41c-2.3,0-3.14,1.52-3.14,2.48,0,1.46,1,1.85,3.41,2.42,2.18.54,5.19,1.25,5.19,4.69A4.47,4.47,0,0,1,86,28.2,5.71,5.71,0,0,1,81.92,29.71Z" transform="translate(-5.99 -4.71)" style="fill:#242843"/><path d="M112.92,29.71a5.36,5.36,0,0,1-5-2.75,1,1,0,0,1,1.81-.8A3.36,3.36,0,0,0,113,27.8c2.27,0,3.48-1.4,3.48-2.75,0-1.76-1.12-2.21-3.7-2.84-2.18-.54-4.91-1.2-4.91-4.27a4.13,4.13,0,0,1,1.34-3A5.33,5.33,0,0,1,113,13.56a5,5,0,0,1,4.69,2.54.91.91,0,0,1-.38,1.22h-.09a1,1,0,0,1-1.33-.45A3.07,3.07,0,0,0,113,15.41c-2.3,0-3.14,1.52-3.14,2.48,0,1.46,1,1.85,3.42,2.42,2.17.54,5.19,1.25,5.19,4.69A4.51,4.51,0,0,1,117,28.2,5.74,5.74,0,0,1,112.92,29.71Z" transform="translate(-5.99 -4.71)" style="fill:#242843"/><path d="M97.42,27.8a4.67,4.67,0,0,1-4.67-4.67h0V14.5a1,1,0,0,0-2,0v8.31a7.18,7.18,0,0,0,1.8,4.84,6.48,6.48,0,0,0,4.84,2.06h.14V27.8Z" transform="translate(-5.99 -4.71)" style="fill:#242843"/><path d="M97.7,27.8a4.67,4.67,0,0,0,4.67-4.67h0V14.5a1,1,0,0,1,2,0v8.31a7.18,7.18,0,0,1-1.8,4.84,6.48,6.48,0,0,1-4.85,2.06h-.14V27.8Z" transform="translate(-5.99 -4.71)" style="fill:#242843"/><path d="M21,4.71A1.08,1.08,0,0,0,20,5.79h0V16.17a8.06,8.06,0,1,0,2.15,5.48V5.79a1.07,1.07,0,0,0-1.06-1.08ZM14,27.56A5.92,5.92,0,1,1,20,21.63v0A5.93,5.93,0,0,1,14,27.56Z" transform="translate(-5.99 -4.71)" style="fill:#242843"/></svg>